<svg xmlns="http://www.w3.org/2000/svg" viewBox="0 0 1200 320">
  <rect x="0" y="0" width="1200" height="320" rx="32" fill="#14181F"/>
  <svg x="60" y="50" width="220" height="220" viewBox="0 0 256 256"><defs><linearGradient id="b-te" x1="0" y1="0" x2="1" y2="1"><stop offset="0" stop-color="#4BE3BC"/><stop offset="1" stop-color="#17A98A"/></linearGradient><linearGradient id="b-fl" x1="0" y1="0" x2="1" y2="1"><stop offset="0" stop-color="#EEF0F4"/><stop offset="1" stop-color="#8F99A8"/></linearGradient><linearGradient id="b-hub" x1="0" y1="0" x2="1" y2="1"><stop offset="0" stop-color="#454E5D"/><stop offset="1" stop-color="#1E232B"/></linearGradient><linearGradient id="b-gr" x1="0" y1="0" x2="1" y2="0"><stop offset="0" stop-color="#5EEAB4"/><stop offset="1" stop-color="#10B981"/></linearGradient></defs><g transform="rotate(135 128 128)" fill="none" stroke-width="12" stroke-linecap="round"><circle cx="128" cy="128" r="112" stroke="#8E98A8" stroke-opacity=".3" stroke-dasharray="527.8 703.7"/><circle cx="128" cy="128" r="112" stroke="url(#b-gr)" stroke-dasharray="380.0 703.7"/></g><circle cx="128" cy="128" r="84" fill="url(#b-fl)"/><circle cx="128" cy="128" r="80" fill="none" stroke="#fff" stroke-opacity=".45" stroke-width="2"/><circle cx="128" cy="128" r="54" fill="none" stroke="url(#b-te)" stroke-width="40"/><circle cx="128" cy="128" r="45.2" fill="none" stroke="#000" stroke-opacity=".13" stroke-width="1.5"/><circle cx="128" cy="128" r="62.8" fill="none" stroke="#000" stroke-opacity=".13" stroke-width="1.5"/><circle cx="128" cy="128" r="74.0" fill="none" stroke="#000" stroke-opacity=".2" stroke-width="2.5"/><path fill-rule="evenodd" fill="url(#b-hub)" d="M94 128 A34 34 0 1 0 162 128 A34 34 0 1 0 94 128 Z M114 128 A14 14 0 1 0 142 128 A14 14 0 1 0 114 128 Z"/><circle cx="128" cy="128" r="14" fill="none" stroke="#000" stroke-opacity=".45" stroke-width="2"/></svg>
  <text x="340" y="165" font-family="Roboto, -apple-system, BlinkMacSystemFont, &quot;Segoe UI&quot;, Helvetica, Arial, sans-serif" font-size="64" font-weight="700" fill="#F3F5F7">Spoolio</text>
  <text x="340" y="210" font-family="Roboto, -apple-system, BlinkMacSystemFont, &quot;Segoe UI&quot;, Helvetica, Arial, sans-serif" font-size="24" fill="#9AA4B2">Spool Inventory Overview for OrcaSlicer</text>
</svg>
